<svg width="85" height="23" viewBox="0 0 85 23" fill="none" xmlns="http://www.w3.org/2000/svg">
<path d="M15.9204 21.4094C15.666 21.2038 15.0945 20.3326 15.0945 18.97C15.0945 16.1821 15.0887 13.4047 15.0771 10.6377C15.0793 10.1685 15.0266 9.70071 14.9202 9.24375C14.5543 7.79754 13.5263 6.9542 12.1776 6.49071C10.3028 5.8495 8.3687 5.82859 6.42763 6.05859C5.09389 6.17999 3.82748 6.69967 2.79291 7.55011C1.84203 8.3675 1.23161 9.51125 1.08184 10.7562C1.07232 10.815 1.0756 10.8753 1.09147 10.9328C1.10733 10.9902 1.1354 11.0436 1.17377 11.0893C1.21214 11.1349 1.2599 11.1718 1.3138 11.1973C1.3677 11.2228 1.42646 11.2364 1.48609 11.2371C3.16231 11.2371 4.16595 11.2197 5.5599 11.2197C5.6406 11.2206 5.71971 11.1972 5.78686 11.1524C5.85402 11.1076 5.90609 11.0436 5.93626 10.9688C6.19066 10.3171 6.63323 9.68633 7.33021 9.59921C9.16673 9.36573 9.71385 9.89542 9.98219 10.0941C10.177 10.2429 10.3233 10.4462 10.4027 10.6781C10.4821 10.9101 10.491 11.1604 10.4283 11.3974C10.3411 11.8539 9.96825 12.0316 9.56749 12.1397C7.46104 12.4627 5.38257 12.9474 3.35049 13.5894C0.329115 14.6348 -0.099521 18.3915 0.956393 20.2734C1.26314 20.829 1.69363 21.3065 2.21453 21.6691C2.73543 22.0317 3.33278 22.2696 3.96034 22.3643C5.13525 22.5779 6.34431 22.5054 7.48529 22.153C8.62626 21.8006 9.66559 21.1785 10.5154 20.3396C10.6164 20.8483 10.7245 21.3014 10.7872 21.7614C10.829 22.0576 10.9614 22.1412 11.2507 22.1378C12.7736 22.1378 14.5543 22.0994 16.1295 22.0994C16.1434 21.7335 16.1678 21.6185 15.9204 21.4094ZM10.2993 17.0952C9.95083 18.6982 7.96794 19.6461 6.44157 19.0188C6.14565 18.8969 5.89469 18.6865 5.72311 18.4163C5.55153 18.1461 5.46774 17.8295 5.48323 17.5099C5.48323 15.9277 6.91202 15.4851 10.4666 14.8335C10.4668 15.5928 10.4109 16.3511 10.2993 17.1021V17.0952Z" fill="white"/>
<path d="M43.0608 6.29903H38.4189C38.3073 6.29903 38.2168 6.38952 38.2168 6.50115V21.9008C38.2168 22.0124 38.3073 22.1029 38.4189 22.1029H43.0608C43.1724 22.1029 43.2629 22.0124 43.2629 21.9008V6.50115C43.2629 6.38952 43.1724 6.29903 43.0608 6.29903Z" fill="white"/>
<path d="M43.0608 0.817352H38.4189C38.3073 0.817352 38.2168 0.907843 38.2168 1.01947V4.64025C38.2168 4.75187 38.3073 4.84237 38.4189 4.84237H43.0608C43.1724 4.84237 43.2629 4.75187 43.2629 4.64025V1.01947C43.2629 0.907843 43.1724 0.817352 43.0608 0.817352Z" fill="white"/>
<path d="M84.7776 21.3885C84.5232 21.1829 83.9517 20.3117 83.9517 18.9491C83.9517 16.1612 83.9459 13.3838 83.9343 10.6168C83.9382 10.1475 83.8856 9.67949 83.7775 9.22284C83.429 7.77313 82.3835 6.93328 81.0349 6.46979C79.16 5.82858 77.2259 5.80767 75.2848 6.03767C73.9518 6.15934 72.6858 6.67764 71.6501 7.52571C70.7004 8.34545 70.0903 9.48981 69.9391 10.7353C69.9295 10.7944 69.9329 10.8549 69.9489 10.9127C69.965 10.9704 69.9934 11.024 70.0321 11.0697C70.0709 11.1154 70.1191 11.1521 70.1734 11.1774C70.2277 11.2027 70.2869 11.2159 70.3468 11.2162C72.023 11.2162 73.0232 11.2162 74.4171 11.2162C74.4978 11.2171 74.5769 11.1937 74.6441 11.1489C74.7112 11.1041 74.7633 11.0401 74.7935 10.9653C75.0514 10.3136 75.4905 9.68284 76.1874 9.59572C78.024 9.36223 78.5711 9.88844 78.8394 10.0906C79.0339 10.2397 79.1799 10.443 79.2593 10.6749C79.3386 10.9067 79.3478 11.1569 79.2855 11.3939C79.1949 11.8504 78.822 12.0282 78.4247 12.1362C76.3153 12.4503 74.2333 12.9268 72.1973 13.5615C69.1759 14.6069 68.7438 18.3636 69.8032 20.2455C70.1095 20.8014 70.5399 21.2793 71.0608 21.6419C71.5818 22.0045 72.1794 22.2422 72.8071 22.3364C73.9833 22.5537 75.1946 22.484 76.3382 22.1334C77.4817 21.7827 78.5238 21.1614 79.3761 20.3221C79.4771 20.8274 79.5852 21.284 79.6514 21.744C79.6932 22.0402 79.8221 22.1203 80.1149 22.1203C81.6378 22.1203 83.4185 22.0785 84.9937 22.0785C85.0041 21.7056 85.0285 21.5871 84.7776 21.3885ZM79.167 17.0742C78.8185 18.6773 76.8356 19.6252 75.3127 18.9944C74.6367 18.7191 74.3892 18.1755 74.3509 17.4889C74.3509 15.9033 75.7832 15.4607 79.3343 14.8126C79.3374 15.5697 79.2815 16.3258 79.167 17.0742Z" fill="white"/>
<path d="M56.1324 12.7774C54.7384 12.2372 50.5566 11.0349 49.9467 10.7736C49.0616 10.4251 49.3055 9.37963 49.9084 9.03115C50.1827 8.85874 50.4898 8.7453 50.8103 8.69803C51.1308 8.65075 51.4576 8.67069 51.77 8.75656C52.0823 8.84244 52.3734 8.99237 52.6247 9.19683C52.8759 9.40129 53.0819 9.6558 53.2295 9.94418C53.2735 10.0233 53.3376 10.0894 53.4153 10.1359C53.493 10.1824 53.5815 10.2076 53.6721 10.209C54.7698 10.2334 56.6063 10.3554 58.1222 10.3554C58.1222 9.63054 58.3801 7.23993 55.066 5.94704C53.2626 5.27447 51.3067 5.12114 49.4205 5.50446C47.9935 5.72902 46.6621 6.36204 45.5872 7.32705C43.674 9.06948 43.3081 12.7913 46.5595 14.2968C50.1489 15.5757 53.6825 15.4677 53.6825 17.2415C53.6825 17.9106 53.1145 18.9839 51.2118 18.8271C49.7481 18.7016 49.2393 17.9768 48.9605 17.0429C48.9276 16.9357 48.8617 16.8416 48.7722 16.7741C48.6828 16.7065 48.5743 16.6689 48.4622 16.6665C47.0369 16.6665 46.1343 16.6281 44.2804 16.6281C44.2804 23.3121 52.5255 22.4618 55.411 21.5279C58.2965 20.5939 59.2931 18.3392 58.7983 15.7151C58.5125 14.1922 57.4706 13.3001 56.1324 12.7774Z" fill="white"/>
<path d="M22.0158 8.58856V6.35128H17.0986V22.1063H22.1447C22.1447 21.9042 22.0959 15.7709 22.298 13.6695C22.4897 12.2755 23.1902 11.4183 24.4308 11.1778C25.3106 11.0353 26.2033 10.9885 27.0932 11.0384V5.95052C24.8943 5.79718 22.8173 7.06568 22.0158 8.58856Z" fill="white"/>
<path d="M37.2582 6.31644H35.0802V2.4343C35.0802 2.36868 35.0541 2.30574 35.0077 2.25934C34.9613 2.21294 34.8984 2.18687 34.8327 2.18687H30.2153C30.1497 2.18687 30.0867 2.21294 30.0403 2.25934C29.9939 2.30574 29.9679 2.36868 29.9679 2.4343V6.31644H28.0477C27.9821 6.31644 27.9192 6.34251 27.8728 6.38891C27.8264 6.43531 27.8003 6.49824 27.8003 6.56387V9.38312C27.8003 9.44874 27.8264 9.51167 27.8728 9.55808C27.9192 9.60448 27.9821 9.63054 28.0477 9.63054H29.9679V18.97C29.9679 19.8018 30.2983 20.5996 30.8865 21.1877C31.4747 21.7759 32.2724 22.1064 33.1043 22.1064H37.2617C37.2942 22.1064 37.3264 22.1 37.3564 22.0875C37.3864 22.0751 37.4137 22.0569 37.4367 22.0339C37.4596 22.0109 37.4778 21.9836 37.4903 21.9536C37.5027 21.9236 37.5091 21.8914 37.5091 21.8589V19.071C37.5096 19.0372 37.5034 19.0036 37.4908 18.9721C37.4783 18.9406 37.4597 18.9119 37.4361 18.8877C37.4124 18.8634 37.3843 18.844 37.3531 18.8306C37.322 18.8173 37.2886 18.8101 37.2547 18.8097L36.2371 18.7853C36.0854 18.7853 35.9351 18.7553 35.7949 18.6971C35.6547 18.639 35.5274 18.5537 35.4203 18.4462C35.3131 18.3387 35.2282 18.2112 35.1705 18.0708C35.1127 17.9305 35.0832 17.7801 35.0837 17.6283V9.61312H37.2617C37.3273 9.61312 37.3903 9.58705 37.4367 9.54065C37.4831 9.49425 37.5091 9.43132 37.5091 9.3657V6.56387C37.5091 6.53108 37.5026 6.49861 37.49 6.46837C37.4773 6.43812 37.4588 6.41069 37.4354 6.38767C37.4121 6.36464 37.3844 6.34649 37.354 6.33426C37.3235 6.32204 37.291 6.31598 37.2582 6.31644Z" fill="white"/>
<path d="M68.3153 6.31644H66.1373V2.4343C66.1373 2.36868 66.1112 2.30574 66.0648 2.25934C66.0184 2.21294 65.9555 2.18687 65.8899 2.18687H61.2759C61.2103 2.18687 61.1474 2.21294 61.101 2.25934C61.0546 2.30574 61.0285 2.36868 61.0285 2.4343V6.31644H59.1048C59.0392 6.31644 58.9763 6.34251 58.9299 6.38891C58.8835 6.43531 58.8574 6.49824 58.8574 6.56387V9.38312C58.8574 9.44874 58.8835 9.51167 58.9299 9.55808C58.9763 9.60448 59.0392 9.63054 59.1048 9.63054H61.0459V18.97C61.0459 19.8018 61.3764 20.5996 61.9645 21.1877C62.5527 21.7759 63.3505 22.1064 64.1823 22.1064H68.3397C68.3722 22.1064 68.4044 22.1 68.4344 22.0875C68.4644 22.0751 68.4917 22.0569 68.5147 22.0339C68.5377 22.0109 68.5559 21.9836 68.5683 21.9536C68.5808 21.9236 68.5872 21.8914 68.5872 21.8589V19.071C68.5876 19.0372 68.5814 19.0036 68.5689 18.9721C68.5563 18.9406 68.5377 18.9119 68.5141 18.8877C68.4905 18.8634 68.4623 18.844 68.4312 18.8306C68.4001 18.8173 68.3666 18.8101 68.3328 18.8097L67.3187 18.7853C67.1666 18.7857 67.016 18.7561 66.8754 18.6982C66.7348 18.6402 66.6071 18.555 66.4995 18.4474C66.392 18.3399 66.3068 18.2122 66.2488 18.0716C66.1908 17.931 66.1612 17.7804 66.1617 17.6283V9.61312H68.3397C68.4054 9.61312 68.4683 9.58705 68.5147 9.54065C68.5611 9.49425 68.5872 9.43132 68.5872 9.3657V6.56387C68.5873 6.52921 68.5802 6.49492 68.5663 6.46319C68.5524 6.43146 68.5319 6.40301 68.5063 6.37969C68.4807 6.35636 68.4504 6.33868 68.4175 6.32778C68.3846 6.31689 68.3498 6.31302 68.3153 6.31644Z" fill="white"/>
</svg>
