<svg width="16" height="16" viewBox="0 0 16 16" fill="none" xmlns="http://www.w3.org/2000/svg">
<path d="M15.958 6.13694C15.8527 5.81296 15.5653 5.58358 15.2267 5.55294L10.608 5.13363L8.78263 0.860116C8.64786 0.546146 8.34121 0.343506 7.9999 0.343506C7.65858 0.343506 7.35182 0.546146 7.2179 0.860116L5.39256 5.13363L0.773094 5.55294C0.434465 5.58419 0.147717 5.81357 0.0417584 6.13694C-0.06359 6.46092 0.0337016 6.81627 0.289809 7.04088L3.7812 10.1023L2.75176 14.6363C2.67645 14.9697 2.80584 15.3145 3.08246 15.5144C3.23114 15.6224 3.40583 15.6764 3.58112 15.6764C3.73176 15.6764 3.88252 15.6364 4.01717 15.5558L7.9999 13.1744L11.9819 15.5558C12.274 15.7304 12.6413 15.7144 12.9173 15.5144C13.194 15.3145 13.3234 14.9697 13.248 14.6363L12.2186 10.1023L15.71 7.04088C15.966 6.81627 16.0634 6.46165 15.958 6.13694Z" fill="#F6BE00"/>
</svg>
