<svg width="35" height="35" viewBox="0 0 35 35" fill="none" xmlns="http://www.w3.org/2000/svg">
<path d="M33.0992 25.0283C31.2592 28.9244 27.3562 31.8133 26.5825 32.235C23.6657 33.8206 21.1392 34.8347 16.0408 34.8347C8.4961 34.8347 6.40866 34.0123 4.24456 33.5732V31.1338C4.59305 31.1547 7.26245 31.5833 8.71216 31.0083C17.5358 27.506 11.1899 18.9786 9.95625 17.4173C7.61094 14.4726 5.30745 11.1446 6.43306 7.31124C3.53714 10.2072 2.48819 14.1067 2.48819 17.4487H0C0 11.5732 2.89592 6.94185 5.42245 4.79169C7.94897 2.64153 11.4478 0.024395 17.4243 0.024395C19.334 0.024395 23.6587 0 26.4327 0C26.4327 1.21622 26.4013 1.83652 26.4013 2.48819C25.4709 2.48819 23.4845 2.3488 21.871 3.13289C19.6686 4.17835 17.7554 9.46489 23.1499 15.424C28.5445 21.3831 26.5686 27.8057 23.5821 31.0432C28.1124 29.1579 30.5518 24.8715 31.0466 23.596C31.5415 22.3206 32.3082 20.7315 32.3744 18.8531C32.817 18.8531 33.3745 18.888 34.8138 18.888C34.6626 21.0295 34.0794 23.1182 33.0992 25.0283Z" fill="white"/>
</svg>
