<svg width="70" height="70" viewBox="0 0 70 70" fill="none" xmlns="http://www.w3.org/2000/svg">
<path d="M0 6.10352e-05V69.6973H69.6973V6.10352e-05H0ZM50.5549 42.4666C48.7149 46.3627 44.8119 49.2516 44.0382 49.6733C41.1214 51.2589 38.5949 52.273 33.4965 52.273C25.9518 52.273 23.8643 51.4506 21.7002 51.0115V48.5721C22.0487 48.593 24.7181 49.0216 26.1678 48.4466C34.9915 44.9443 28.6456 36.4169 27.4119 34.8557C25.0666 31.911 22.7631 28.5829 23.8887 24.7496C20.9928 27.6455 19.9439 31.545 19.9439 34.887H17.4557C17.4557 29.0116 20.3516 24.3802 22.8781 22.23C25.4047 20.0798 28.9035 17.4627 34.88 17.4627C36.7897 17.4627 41.1144 17.4383 43.8884 17.4383C43.8884 18.6545 43.857 19.2748 43.857 19.9265C42.9265 19.9265 40.9402 19.7871 39.3267 20.5712C37.1243 21.6167 35.2111 26.9032 40.6056 32.8623C46.0002 38.8214 44.0243 45.244 41.0378 48.4815C45.5681 46.5962 48.0075 42.3098 48.5023 41.0343C48.9972 39.7589 49.7639 38.1698 49.8301 36.2914C50.2726 36.2914 50.8302 36.3263 52.2695 36.3263C52.1183 38.4678 51.5351 40.5566 50.5549 42.4666Z" fill="white"/>
</svg>
