<svg width="163" height="70" viewBox="0 0 163 70" fill="none" xmlns="http://www.w3.org/2000/svg">
<path d="M93.9204 55.4094C93.666 55.2038 93.0945 54.3326 93.0945 52.97C93.0945 50.1821 93.0887 47.4047 93.0771 44.6377C93.0793 44.1685 93.0266 43.7007 92.9202 43.2438C92.5543 41.7975 91.5263 40.9542 90.1776 40.4907C88.3028 39.8495 86.3687 39.8286 84.4276 40.0586C83.0939 40.18 81.8275 40.6997 80.7929 41.5501C79.842 42.3675 79.2316 43.5113 79.0818 44.7562C79.0723 44.815 79.0756 44.8753 79.0915 44.9328C79.1073 44.9902 79.1354 45.0436 79.1738 45.0893C79.2121 45.1349 79.2599 45.1718 79.3138 45.1973C79.3677 45.2228 79.4265 45.2364 79.4861 45.2371C81.1623 45.2371 82.1659 45.2197 83.5599 45.2197C83.6406 45.2206 83.7197 45.1972 83.7869 45.1524C83.854 45.1076 83.9061 45.0436 83.9363 44.9688C84.1907 44.3171 84.6332 43.6863 85.3302 43.5992C87.1667 43.3657 87.7139 43.8954 87.9822 44.0941C88.177 44.2429 88.3233 44.4462 88.4027 44.6781C88.4821 44.9101 88.491 45.1604 88.4283 45.3974C88.3411 45.8539 87.9682 46.0316 87.5675 46.1397C85.461 46.4627 83.3826 46.9474 81.3505 47.5894C78.3291 48.6348 77.9005 52.3915 78.9564 54.2734C79.2631 54.829 79.6936 55.3065 80.2145 55.6691C80.7354 56.0317 81.3328 56.2696 81.9603 56.3643C83.1352 56.5779 84.3443 56.5054 85.4853 56.153C86.6263 55.8006 87.6656 55.1785 88.5154 54.3396C88.6164 54.8483 88.7245 55.3014 88.7872 55.7614C88.829 56.0576 88.9614 56.1412 89.2507 56.1378C90.7736 56.1378 92.5543 56.0994 94.1295 56.0994C94.1434 55.7335 94.1678 55.6185 93.9204 55.4094ZM88.2993 51.0952C87.9508 52.6982 85.9679 53.6461 84.4416 53.0188C84.1456 52.8969 83.8947 52.6865 83.7231 52.4163C83.5515 52.1461 83.4677 51.8295 83.4832 51.5099C83.4832 49.9277 84.912 49.4851 88.4666 48.8335C88.4668 49.5928 88.4109 50.3511 88.2993 51.1021V51.0952Z" fill="white"/>
<path d="M121.061 40.299H116.419C116.307 40.299 116.217 40.3895 116.217 40.5011V55.9008C116.217 56.0124 116.307 56.1029 116.419 56.1029H121.061C121.172 56.1029 121.263 56.0124 121.263 55.9008V40.5011C121.263 40.3895 121.172 40.299 121.061 40.299Z" fill="white"/>
<path d="M121.061 34.8174H116.419C116.307 34.8174 116.217 34.9078 116.217 35.0195V38.6402C116.217 38.7519 116.307 38.8424 116.419 38.8424H121.061C121.172 38.8424 121.263 38.7519 121.263 38.6402V35.0195C121.263 34.9078 121.172 34.8174 121.061 34.8174Z" fill="white"/>
<path d="M162.778 55.3885C162.523 55.1829 161.952 54.3117 161.952 52.9491C161.952 50.1612 161.946 47.3838 161.934 44.6168C161.938 44.1475 161.886 43.6795 161.777 43.2228C161.429 41.7731 160.384 40.9333 159.035 40.4698C157.16 39.8286 155.226 39.8077 153.285 40.0377C151.952 40.1593 150.686 40.6776 149.65 41.5257C148.7 42.3455 148.09 43.4898 147.939 44.7353C147.929 44.7944 147.933 44.8549 147.949 44.9127C147.965 44.9704 147.993 45.024 148.032 45.0697C148.071 45.1154 148.119 45.1521 148.173 45.1774C148.228 45.2027 148.287 45.2159 148.347 45.2162C150.023 45.2162 151.023 45.2162 152.417 45.2162C152.498 45.2171 152.577 45.1937 152.644 45.1489C152.711 45.1041 152.763 45.0401 152.793 44.9653C153.051 44.3136 153.49 43.6828 154.187 43.5957C156.024 43.3622 156.571 43.8884 156.839 44.0906C157.034 44.2397 157.18 44.443 157.259 44.6749C157.339 44.9067 157.348 45.1569 157.285 45.3939C157.195 45.8504 156.822 46.0282 156.425 46.1362C154.315 46.4503 152.233 46.9268 150.197 47.5615C147.176 48.6069 146.744 52.3636 147.803 54.2455C148.109 54.8014 148.54 55.2793 149.061 55.6419C149.582 56.0045 150.179 56.2422 150.807 56.3364C151.983 56.5537 153.195 56.484 154.338 56.1334C155.482 55.7827 156.524 55.1614 157.376 54.3221C157.477 54.8274 157.585 55.284 157.651 55.744C157.693 56.0402 157.822 56.1203 158.115 56.1203C159.638 56.1203 161.419 56.0785 162.994 56.0785C163.004 55.7056 163.029 55.5871 162.778 55.3885ZM157.167 51.0742C156.818 52.6773 154.836 53.6252 153.313 52.9944C152.637 52.7191 152.389 52.1755 152.351 51.4889C152.351 49.9033 153.783 49.4607 157.334 48.8126C157.337 49.5697 157.282 50.3258 157.167 51.0742Z" fill="white"/>
<path d="M134.132 46.7774C132.738 46.2372 128.557 45.0349 127.947 44.7736C127.062 44.4251 127.306 43.3796 127.908 43.0311C128.183 42.8587 128.49 42.7453 128.81 42.698C129.131 42.6508 129.458 42.6707 129.77 42.7566C130.082 42.8424 130.373 42.9924 130.625 43.1968C130.876 43.4013 131.082 43.6558 131.229 43.9442C131.274 44.0233 131.338 44.0894 131.415 44.1359C131.493 44.1824 131.582 44.2076 131.672 44.209C132.77 44.2334 134.606 44.3554 136.122 44.3554C136.122 43.6305 136.38 41.2399 133.066 39.947C131.263 39.2745 129.307 39.1211 127.421 39.5045C125.994 39.729 124.662 40.362 123.587 41.327C121.674 43.0695 121.308 46.7913 124.559 48.2968C128.149 49.5757 131.683 49.4677 131.683 51.2415C131.683 51.9106 131.114 52.9839 129.212 52.8271C127.748 52.7016 127.239 51.9768 126.961 51.0429C126.928 50.9357 126.862 50.8416 126.772 50.7741C126.683 50.7065 126.574 50.6689 126.462 50.6665C125.037 50.6665 124.134 50.6281 122.28 50.6281C122.28 57.3121 130.526 56.4618 133.411 55.5279C136.296 54.5939 137.293 52.3392 136.798 49.7151C136.513 48.1922 135.471 47.3001 134.132 46.7774Z" fill="white"/>
<path d="M100.016 42.5886V40.3513H95.0986V56.1063H100.145C100.145 55.9042 100.096 49.7709 100.298 47.6695C100.49 46.2755 101.19 45.4183 102.431 45.1778C103.311 45.0353 104.203 44.9885 105.093 45.0384V39.9505C102.894 39.7972 100.817 41.0657 100.016 42.5886Z" fill="white"/>
<path d="M115.258 40.3164H113.08V36.4343C113.08 36.3687 113.054 36.3057 113.008 36.2593C112.961 36.2129 112.898 36.1869 112.833 36.1869H108.215C108.15 36.1869 108.087 36.2129 108.04 36.2593C107.994 36.3057 107.968 36.3687 107.968 36.4343V40.3164H106.048C105.982 40.3164 105.919 40.3425 105.873 40.3889C105.826 40.4353 105.8 40.4982 105.8 40.5639V43.3831C105.8 43.4487 105.826 43.5117 105.873 43.5581C105.919 43.6045 105.982 43.6305 106.048 43.6305H107.968V52.97C107.968 53.8018 108.298 54.5996 108.886 55.1877C109.475 55.7759 110.272 56.1064 111.104 56.1064H115.262C115.294 56.1064 115.326 56.1 115.356 56.0875C115.386 56.0751 115.414 56.0569 115.437 56.0339C115.46 56.0109 115.478 55.9836 115.49 55.9536C115.503 55.9236 115.509 55.8914 115.509 55.8589V53.071C115.51 53.0372 115.503 53.0036 115.491 52.9721C115.478 52.9406 115.46 52.9119 115.436 52.8877C115.412 52.8634 115.384 52.844 115.353 52.8306C115.322 52.8173 115.289 52.8101 115.255 52.8097L114.237 52.7853C114.085 52.7853 113.935 52.7553 113.795 52.6971C113.655 52.639 113.527 52.5537 113.42 52.4462C113.313 52.3387 113.228 52.2112 113.17 52.0708C113.113 51.9305 113.083 51.7801 113.084 51.6283V43.6131H115.262C115.327 43.6131 115.39 43.5871 115.437 43.5407C115.483 43.4943 115.509 43.4313 115.509 43.3657V40.5639C115.509 40.5311 115.503 40.4986 115.49 40.4684C115.477 40.4381 115.459 40.4107 115.435 40.3877C115.412 40.3646 115.384 40.3465 115.354 40.3343C115.324 40.322 115.291 40.316 115.258 40.3164Z" fill="white"/>
<path d="M146.315 40.3164H144.137V36.4343C144.137 36.3687 144.111 36.3057 144.065 36.2593C144.018 36.2129 143.955 36.1869 143.89 36.1869H139.276C139.21 36.1869 139.147 36.2129 139.101 36.2593C139.055 36.3057 139.028 36.3687 139.028 36.4343V40.3164H137.105C137.039 40.3164 136.976 40.3425 136.93 40.3889C136.883 40.4353 136.857 40.4982 136.857 40.5639V43.3831C136.857 43.4487 136.883 43.5117 136.93 43.5581C136.976 43.6045 137.039 43.6305 137.105 43.6305H139.046V52.97C139.046 53.8018 139.376 54.5996 139.965 55.1877C140.553 55.7759 141.35 56.1064 142.182 56.1064H146.34C146.372 56.1064 146.404 56.1 146.434 56.0875C146.464 56.0751 146.492 56.0569 146.515 56.0339C146.538 56.0109 146.556 55.9836 146.568 55.9536C146.581 55.9236 146.587 55.8914 146.587 55.8589V53.071C146.588 53.0372 146.581 53.0036 146.569 52.9721C146.556 52.9406 146.538 52.9119 146.514 52.8877C146.49 52.8634 146.462 52.844 146.431 52.8306C146.4 52.8173 146.367 52.8101 146.333 52.8097L145.319 52.7853C145.167 52.7857 145.016 52.7561 144.875 52.6982C144.735 52.6402 144.607 52.555 144.5 52.4474C144.392 52.3399 144.307 52.2122 144.249 52.0716C144.191 51.931 144.161 51.7804 144.162 51.6283V43.6131H146.34C146.405 43.6131 146.468 43.5871 146.515 43.5407C146.561 43.4943 146.587 43.4313 146.587 43.3657V40.5639C146.587 40.5292 146.58 40.4949 146.566 40.4632C146.552 40.4315 146.532 40.403 146.506 40.3797C146.481 40.3564 146.45 40.3387 146.418 40.3278C146.385 40.3169 146.35 40.313 146.315 40.3164Z" fill="white"/>
<path d="M80.8491 22.0976C84.442 23.3766 87.9756 23.2685 87.9756 25.0423C87.9756 25.7114 87.4041 26.7847 85.5048 26.6279C84.0412 26.5025 83.5324 25.7776 83.2501 24.8437C83.2183 24.7365 83.1532 24.6423 83.0642 24.5746C82.9753 24.5069 82.867 24.4694 82.7553 24.4673C81.3265 24.4673 80.4274 24.5022 78.5909 24.5022C78.4097 30.8411 86.8395 30.2626 89.725 29.3287C92.6105 28.3948 93.6071 26.14 93.1123 23.5159C92.8231 21.9931 91.7776 21.1009 90.4429 20.5782C89.0489 20.0381 84.8671 18.8358 84.2538 18.5744C83.3721 18.2259 83.616 17.1805 84.2189 16.832C84.4932 16.6596 84.8003 16.5461 85.1208 16.4989C85.4413 16.4516 85.7681 16.4715 86.0805 16.5574C86.3928 16.6433 86.6839 16.7932 86.9352 16.9977C87.1864 17.2021 87.3924 17.4566 87.54 17.745C87.5835 17.8246 87.6474 17.8911 87.7252 17.9377C87.8031 17.9842 87.8919 18.0092 87.9826 18.0099C89.0803 18.0343 90.9168 18.1562 92.4327 18.1562C92.4327 17.4314 92.6871 15.0408 89.373 13.7479C87.5709 13.0752 85.6161 12.9219 83.731 13.3053C82.2981 13.5272 80.9603 14.1604 79.8803 15.1279C77.9671 16.8773 77.6047 20.5782 80.8491 22.0976Z" fill="white"/>
<path d="M125.03 29.8863C125.03 24.8821 125.03 19.2157 125.03 14.2044C123.908 14.2044 120.423 14.2741 119.935 14.2741C119.935 14.4519 120.632 23.7983 119.102 25.3386C118.811 25.7359 118.41 26.0388 117.949 26.2098C117.424 26.3777 116.856 26.3461 116.353 26.121C115.85 25.896 115.448 25.4933 115.224 24.9901C114.321 22.9514 114.694 18.8881 114.802 14.2672H109.731V14.7829C109.731 16.8982 109.71 24.1433 109.773 25.6487C109.867 27.8198 110.902 29.3636 112.993 30.1268C115.412 31.0085 119.134 29.97 119.935 27.8337C119.935 28.9628 119.935 29.3322 119.935 29.9247C120.845 29.9142 123.967 29.8863 125.03 29.8863Z" fill="white"/>
<path d="M109.049 24.3941C107.655 24.3941 106.188 24.4603 104.822 24.4638C104.705 24.4671 104.592 24.5011 104.493 24.5622C104.393 24.6234 104.312 24.7097 104.257 24.8123C103.859 25.3953 103.268 25.8187 102.588 26.0076C100.239 26.4955 98.406 25.3106 98.5488 22.934H109.049C109.049 18.6232 107.815 13.4063 101.382 13.4063C96.681 13.4063 93.7153 16.3267 93.7153 21.5714C93.7153 26.8161 96.9284 29.9037 101.326 29.9037C106.756 29.9037 109.049 26.5129 109.049 24.3941ZM99.6988 17.3965C100.145 17.0966 100.666 16.9276 101.203 16.9085C101.74 16.8894 102.272 17.021 102.738 17.2885C103.783 17.8391 104.159 18.8044 104.24 19.9683H98.3676C98.4547 18.9124 98.7858 17.9924 99.6988 17.3965Z" fill="white"/>
<path d="M0 0V69.6973H69.6973V0H0ZM50.5549 42.4665C48.7149 46.3626 44.8119 49.2516 44.0382 49.6732C41.1214 51.2589 38.5949 52.273 33.4965 52.273C25.9518 52.273 23.8643 51.4505 21.7002 51.0114V48.572C22.0487 48.5929 24.7181 49.0216 26.1678 48.4466C34.9915 44.9443 28.6456 36.4168 27.4119 34.8556C25.0666 31.9109 22.7631 28.5828 23.8887 24.7495C20.9928 27.6454 19.9439 31.545 19.9439 34.887H17.4557C17.4557 29.0115 20.3516 24.3801 22.8781 22.2299C25.4047 20.0798 28.9035 17.4627 34.88 17.4627C36.7897 17.4627 41.1144 17.4383 43.8884 17.4383C43.8884 18.6545 43.857 19.2748 43.857 19.9265C42.9265 19.9265 40.9402 19.7871 39.3267 20.5711C37.1243 21.6166 35.2111 26.9031 40.6056 32.8623C46.0002 38.8214 44.0243 45.244 41.0378 48.4814C45.5681 46.5961 48.0075 42.3097 48.5023 41.0343C48.9972 39.7588 49.7639 38.1697 49.8301 36.2914C50.2726 36.2914 50.8302 36.3262 52.2695 36.3262C52.1183 38.4678 51.5351 40.5565 50.5549 42.4665Z" fill="white"/>
</svg>
