<svg width="163" height="70" viewBox="0 0 163 70" fill="none" xmlns="http://www.w3.org/2000/svg">
<path d="M93.9204 55.4095C93.666 55.2039 93.0945 54.3327 93.0945 52.9701C93.0945 50.1822 93.0887 47.4048 93.0771 44.6378C93.0793 44.1686 93.0267 43.7008 92.9203 43.2438C92.5544 41.7976 91.5263 40.9543 90.1777 40.4908C88.3028 39.8496 86.3687 39.8287 84.4277 40.0587C83.0939 40.1801 81.8275 40.6997 80.7929 41.5502C79.8421 42.3676 79.2316 43.5113 79.0819 44.7563C79.0723 44.8151 79.0756 44.8754 79.0915 44.9328C79.1074 44.9903 79.1354 45.0437 79.1738 45.0893C79.2122 45.135 79.2599 45.1718 79.3138 45.1973C79.3677 45.2229 79.4265 45.2364 79.4861 45.2372C81.1623 45.2372 82.166 45.2197 83.5599 45.2197C83.6406 45.2207 83.7197 45.1972 83.7869 45.1525C83.854 45.1077 83.9061 45.0437 83.9363 44.9688C84.1907 44.3172 84.6333 43.6864 85.3302 43.5993C87.1668 43.3658 87.7139 43.8955 87.9822 44.0941C88.177 44.243 88.3234 44.4462 88.4028 44.6782C88.4822 44.9102 88.491 45.1605 88.4283 45.3975C88.3412 45.854 87.9683 46.0317 87.5675 46.1398C85.4611 46.4628 83.3826 46.9475 81.3505 47.5895C78.3291 48.6349 77.9005 52.3916 78.9564 54.2734C79.2632 54.829 79.6937 55.3066 80.2146 55.6692C80.7355 56.0318 81.3328 56.2696 81.9604 56.3643C83.1353 56.5779 84.3443 56.5055 85.4853 56.1531C86.6263 55.8006 87.6656 55.1786 88.5154 54.3396C88.6165 54.8484 88.7245 55.3015 88.7872 55.7615C88.829 56.0577 88.9615 56.1413 89.2507 56.1378C90.7736 56.1378 92.5544 56.0995 94.1295 56.0995C94.1435 55.7336 94.1679 55.6186 93.9204 55.4095ZM88.2993 51.0952C87.9509 52.6983 85.968 53.6462 84.4416 53.0189C84.1457 52.897 83.8947 52.6865 83.7231 52.4164C83.5516 52.1462 83.4678 51.8296 83.4833 51.5099C83.4833 49.9278 84.9121 49.4852 88.4666 48.8336C88.4668 49.5929 88.4109 50.3511 88.2993 51.1022V51.0952Z" fill="white"/>
<path d="M121.061 40.2991H116.419C116.307 40.2991 116.217 40.3896 116.217 40.5012V55.9008C116.217 56.0125 116.307 56.103 116.419 56.103H121.061C121.172 56.103 121.263 56.0125 121.263 55.9008V40.5012C121.263 40.3896 121.172 40.2991 121.061 40.2991Z" fill="white"/>
<path d="M121.061 34.8174H116.419C116.307 34.8174 116.217 34.9079 116.217 35.0196V38.6403C116.217 38.752 116.307 38.8425 116.419 38.8425H121.061C121.172 38.8425 121.263 38.752 121.263 38.6403V35.0196C121.263 34.9079 121.172 34.8174 121.061 34.8174Z" fill="white"/>
<path d="M162.778 55.3886C162.523 55.183 161.952 54.3118 161.952 52.9492C161.952 50.1613 161.946 47.3839 161.935 44.6169C161.938 44.1476 161.886 43.6796 161.778 43.2229C161.429 41.7732 160.384 40.9334 159.035 40.4699C157.16 39.8287 155.226 39.8078 153.285 40.0378C151.952 40.1594 150.686 40.6777 149.65 41.5258C148.701 42.3455 148.091 43.4899 147.939 44.7354C147.93 44.7945 147.933 44.855 147.949 44.9128C147.965 44.9705 147.994 45.024 148.032 45.0698C148.071 45.1155 148.119 45.1522 148.174 45.1775C148.228 45.2028 148.287 45.216 148.347 45.2163C150.023 45.2163 151.023 45.2163 152.417 45.2163C152.498 45.2172 152.577 45.1938 152.644 45.149C152.712 45.1042 152.764 45.0402 152.794 44.9654C153.052 44.3137 153.491 43.6829 154.188 43.5958C156.024 43.3623 156.571 43.8885 156.84 44.0907C157.034 44.2398 157.18 44.4431 157.26 44.675C157.339 44.9068 157.348 45.157 157.286 45.394C157.195 45.8505 156.822 46.0282 156.425 46.1363C154.316 46.4504 152.234 46.9269 150.198 47.5616C147.176 48.607 146.744 52.3637 147.803 54.2456C148.11 54.8015 148.54 55.2794 149.061 55.642C149.582 56.0046 150.18 56.2423 150.807 56.3365C151.984 56.5538 153.195 56.4841 154.338 56.1335C155.482 55.7828 156.524 55.1615 157.376 54.3222C157.477 54.8275 157.585 55.284 157.652 55.744C157.693 56.0403 157.822 56.1204 158.115 56.1204C159.638 56.1204 161.419 56.0786 162.994 56.0786C163.004 55.7057 163.029 55.5872 162.778 55.3886ZM157.167 51.0743C156.819 52.6774 154.836 53.6252 153.313 52.9945C152.637 52.7192 152.39 52.1755 152.351 51.489C152.351 49.9034 153.783 49.4608 157.335 48.8127C157.338 49.5697 157.282 50.3259 157.167 51.0743Z" fill="white"/>
<path d="M134.132 46.7775C132.738 46.2373 128.557 45.035 127.947 44.7737C127.062 44.4252 127.306 43.3797 127.908 43.0312C128.183 42.8588 128.49 42.7454 128.81 42.6981C129.131 42.6508 129.458 42.6708 129.77 42.7567C130.082 42.8425 130.373 42.9925 130.625 43.1969C130.876 43.4014 131.082 43.6559 131.229 43.9443C131.273 44.0234 131.338 44.0895 131.415 44.136C131.493 44.1825 131.582 44.2077 131.672 44.2091C132.77 44.2335 134.606 44.3555 136.122 44.3555C136.122 43.6306 136.38 41.24 133.066 39.9471C131.263 39.2746 129.307 39.1212 127.421 39.5046C125.994 39.7291 124.662 40.3621 123.587 41.3271C121.674 43.0696 121.308 46.7914 124.559 48.2969C128.149 49.5758 131.682 49.4678 131.682 51.2416C131.682 51.9107 131.114 52.984 129.212 52.8272C127.748 52.7017 127.239 51.9769 126.961 51.0429C126.928 50.9358 126.862 50.8417 126.772 50.7742C126.683 50.7066 126.574 50.669 126.462 50.6666C125.037 50.6666 124.134 50.6282 122.28 50.6282C122.28 57.3122 130.526 56.4619 133.411 55.528C136.296 54.594 137.293 52.3393 136.798 49.7152C136.513 48.1923 135.471 47.3002 134.132 46.7775Z" fill="white"/>
<path d="M100.016 42.5887V40.3514H95.0984V56.1064H100.145C100.145 55.9043 100.096 49.771 100.298 47.6696C100.49 46.2756 101.19 45.4184 102.431 45.1779C103.31 45.0354 104.203 44.9886 105.093 45.0385V39.9506C102.894 39.7973 100.817 41.0658 100.016 42.5887Z" fill="white"/>
<path d="M115.258 40.3165H113.08V36.4344C113.08 36.3688 113.054 36.3058 113.008 36.2594C112.961 36.213 112.898 36.187 112.833 36.187H108.215C108.15 36.187 108.087 36.213 108.04 36.2594C107.994 36.3058 107.968 36.3688 107.968 36.4344V40.3165H106.048C105.982 40.3165 105.919 40.3426 105.873 40.389C105.826 40.4354 105.8 40.4983 105.8 40.5639V43.3832C105.8 43.4488 105.826 43.5118 105.873 43.5582C105.919 43.6046 105.982 43.6306 106.048 43.6306H107.968V52.9701C107.968 53.8019 108.298 54.5996 108.887 55.1878C109.475 55.776 110.272 56.1064 111.104 56.1064H115.262C115.294 56.1064 115.326 56.1 115.356 56.0876C115.386 56.0752 115.414 56.0569 115.437 56.034C115.46 56.011 115.478 55.9837 115.49 55.9537C115.503 55.9237 115.509 55.8915 115.509 55.859V53.0711C115.51 53.0373 115.503 53.0036 115.491 52.9722C115.478 52.9407 115.46 52.912 115.436 52.8877C115.412 52.8635 115.384 52.8441 115.353 52.8307C115.322 52.8173 115.289 52.8102 115.255 52.8098L114.237 52.7854C114.085 52.7854 113.935 52.7554 113.795 52.6972C113.655 52.639 113.527 52.5538 113.42 52.4463C113.313 52.3388 113.228 52.2112 113.171 52.0709C113.113 51.9305 113.083 51.7802 113.084 51.6284V43.6132H115.262C115.327 43.6132 115.39 43.5871 115.437 43.5407C115.483 43.4943 115.509 43.4314 115.509 43.3658V40.5639C115.509 40.5312 115.503 40.4987 115.49 40.4684C115.477 40.4382 115.459 40.4108 115.435 40.3877C115.412 40.3647 115.384 40.3466 115.354 40.3343C115.324 40.3221 115.291 40.3161 115.258 40.3165Z" fill="white"/>
<path d="M146.315 40.3165H144.137V36.4344C144.137 36.3688 144.111 36.3058 144.065 36.2594C144.018 36.213 143.956 36.187 143.89 36.187H139.276C139.21 36.187 139.147 36.213 139.101 36.2594C139.055 36.3058 139.029 36.3688 139.029 36.4344V40.3165H137.105C137.039 40.3165 136.976 40.3426 136.93 40.389C136.884 40.4354 136.857 40.4983 136.857 40.5639V43.3832C136.857 43.4488 136.884 43.5118 136.93 43.5582C136.976 43.6046 137.039 43.6306 137.105 43.6306H139.046V52.9701C139.046 53.8019 139.376 54.5996 139.965 55.1878C140.553 55.776 141.351 56.1064 142.182 56.1064H146.34C146.372 56.1064 146.404 56.1 146.434 56.0876C146.464 56.0752 146.492 56.0569 146.515 56.034C146.538 56.011 146.556 55.9837 146.568 55.9537C146.581 55.9237 146.587 55.8915 146.587 55.859V53.0711C146.588 53.0373 146.581 53.0036 146.569 52.9722C146.556 52.9407 146.538 52.912 146.514 52.8877C146.491 52.8635 146.462 52.8441 146.431 52.8307C146.4 52.8173 146.367 52.8102 146.333 52.8098L145.319 52.7854C145.167 52.7858 145.016 52.7562 144.875 52.6982C144.735 52.6402 144.607 52.555 144.5 52.4475C144.392 52.34 144.307 52.2123 144.249 52.0717C144.191 51.9311 144.161 51.7804 144.162 51.6284V43.6132H146.34C146.405 43.6132 146.468 43.5871 146.515 43.5407C146.561 43.4943 146.587 43.4314 146.587 43.3658V40.5639C146.587 40.5293 146.58 40.495 146.566 40.4633C146.552 40.4315 146.532 40.4031 146.506 40.3798C146.481 40.3564 146.45 40.3388 146.418 40.3279C146.385 40.317 146.35 40.3131 146.315 40.3165Z" fill="white"/>
<path d="M80.8489 22.0977C84.4418 23.3766 87.9754 23.2686 87.9754 25.0424C87.9754 25.7115 87.4039 26.7848 85.5047 26.628C84.041 26.5025 83.5322 25.7777 83.2499 24.8437C83.2181 24.7366 83.153 24.6423 83.064 24.5747C82.9751 24.507 82.8669 24.4694 82.7551 24.4674C81.3263 24.4674 80.4272 24.5022 78.5907 24.5022C78.4095 30.8412 86.8394 30.2627 89.7248 29.3288C92.6103 28.3948 93.607 26.1401 93.1121 23.516C92.8229 21.9931 91.7774 21.101 90.4427 20.5783C89.0488 20.0381 84.8669 18.8358 84.2536 18.5745C83.3719 18.226 83.6159 17.1805 84.2187 16.832C84.493 16.6596 84.8001 16.5462 85.1206 16.4989C85.4411 16.4517 85.7679 16.4716 86.0803 16.5575C86.3926 16.6433 86.6837 16.7933 86.935 16.9977C87.1863 17.2022 87.3922 17.4567 87.5398 17.7451C87.5833 17.8247 87.6472 17.8912 87.7251 17.9377C87.8029 17.9843 87.8917 18.0092 87.9824 18.0099C89.0801 18.0343 90.9166 18.1563 92.4326 18.1563C92.4326 17.4314 92.687 15.0408 89.3729 13.7479C87.5707 13.0753 85.6159 12.9219 83.7309 13.3054C82.2979 13.5273 80.9602 14.1604 79.8801 15.1279C77.9669 16.8773 77.6045 20.5783 80.8489 22.0977Z" fill="white"/>
<path d="M125.03 29.8864C125.03 24.8821 125.03 19.2157 125.03 14.2045C123.908 14.2045 120.423 14.2742 119.935 14.2742C119.935 14.4519 120.632 23.7983 119.102 25.3386C118.811 25.7359 118.41 26.0389 117.949 26.2099C117.424 26.3778 116.856 26.3461 116.353 26.1211C115.85 25.896 115.448 25.4933 115.223 24.9902C114.321 22.9515 114.694 18.8882 114.802 14.2672H109.731V14.783C109.731 16.8983 109.71 24.1433 109.773 25.6488C109.867 27.8199 110.902 29.3637 112.993 30.1268C115.412 31.0085 119.133 29.97 119.935 27.8338C119.935 28.9629 119.935 29.3323 119.935 29.9247C120.845 29.9143 123.967 29.8864 125.03 29.8864Z" fill="white"/>
<path d="M109.048 24.3942C107.654 24.3942 106.187 24.4604 104.821 24.4639C104.705 24.4672 104.591 24.5011 104.492 24.5623C104.393 24.6235 104.312 24.7097 104.257 24.8124C103.859 25.3953 103.267 25.8187 102.587 26.0077C100.239 26.4955 98.4056 25.3107 98.5485 22.934H109.048C109.048 18.6232 107.815 13.4064 101.382 13.4064C96.6806 13.4064 93.715 16.3267 93.715 21.5714C93.715 26.8162 96.928 29.9037 101.326 29.9037C106.755 29.9037 109.048 26.513 109.048 24.3942ZM99.6985 17.3966C100.144 17.0967 100.665 16.9277 101.202 16.9086C101.739 16.8895 102.271 17.0211 102.737 17.2885C103.783 17.8391 104.159 18.8045 104.239 19.9684H98.3673C98.4544 18.9125 98.7854 17.9925 99.6985 17.3966Z" fill="white"/>
<path d="M0 6.10352e-05V69.6973H69.6973V6.10352e-05H0ZM50.5549 42.4666C48.7149 46.3627 44.8119 49.2516 44.0382 49.6733C41.1214 51.2589 38.5949 52.273 33.4965 52.273C25.9518 52.273 23.8643 51.4506 21.7002 51.0115V48.5721C22.0487 48.593 24.7181 49.0216 26.1678 48.4466C34.9915 44.9443 28.6456 36.4169 27.4119 34.8557C25.0666 31.911 22.7631 28.5829 23.8887 24.7496C20.9928 27.6455 19.9439 31.545 19.9439 34.887H17.4557C17.4557 29.0116 20.3516 24.3802 22.8781 22.23C25.4047 20.0798 28.9035 17.4627 34.88 17.4627C36.7897 17.4627 41.1144 17.4383 43.8884 17.4383C43.8884 18.6545 43.857 19.2748 43.857 19.9265C42.9265 19.9265 40.9402 19.7871 39.3267 20.5712C37.1243 21.6167 35.2111 26.9032 40.6056 32.8623C46.0002 38.8214 44.0243 45.244 41.0378 48.4815C45.5681 46.5962 48.0075 42.3098 48.5023 41.0343C48.9972 39.7589 49.7639 38.1698 49.8301 36.2914C50.2726 36.2914 50.8302 36.3263 52.2695 36.3263C52.1183 38.4678 51.5351 40.5566 50.5549 42.4666Z" fill="white"/>
</svg>
