<svg width="48" height="18" viewBox="0 0 48 18" fill="none" xmlns="http://www.w3.org/2000/svg">
<path d="M2.84906 9.09761C6.44195 10.3766 9.97561 10.2685 9.97561 12.0423C9.97561 12.7114 9.40409 13.7847 7.50484 13.6279C6.04119 13.5025 5.5324 12.7776 5.25013 11.8437C5.21832 11.7365 5.15321 11.6423 5.06423 11.5746C4.97526 11.5069 4.86705 11.4694 4.75528 11.4673C3.32649 11.4673 2.42739 11.5022 0.59087 11.5022C0.409657 17.8411 8.83954 17.2626 11.725 16.3287C14.6105 15.3948 15.6071 13.14 15.1123 10.5159C14.8231 8.99306 13.7776 8.10093 12.4429 7.5782C11.0489 7.03805 6.86711 5.83577 6.25377 5.57441C5.3721 5.22592 5.61604 4.18046 6.21892 3.83198C6.49318 3.65957 6.80032 3.54613 7.1208 3.49886C7.44128 3.45159 7.7681 3.47152 8.08045 3.55739C8.39281 3.64327 8.68389 3.7932 8.93516 3.99766C9.18643 4.20212 9.39241 4.45663 9.54 4.74501C9.58347 4.82459 9.64743 4.89111 9.72524 4.93767C9.80305 4.98424 9.8919 5.00916 9.98258 5.00986C11.0803 5.03426 12.9168 5.15622 14.4327 5.15622C14.4327 4.43137 14.6871 2.04076 11.373 0.747873C9.57085 0.0752212 7.61607 -0.0781197 5.73104 0.305295C4.29807 0.527208 2.96034 1.16036 1.88027 2.12788C-0.032922 3.87728 -0.395348 7.57821 2.84906 9.09761Z" fill="white"/>
<path d="M47.0299 16.8863C47.0299 11.8821 47.0299 6.21567 47.0299 1.20444C45.9078 1.20444 42.4229 1.27413 41.9351 1.27413C41.9351 1.45186 42.632 10.7983 41.1022 12.3386C40.8115 12.7359 40.4103 13.0388 39.9487 13.2098C39.424 13.3777 38.8557 13.3461 38.3529 13.121C37.85 12.896 37.4479 12.4933 37.2235 11.9901C36.3209 9.95145 36.6938 5.88809 36.8018 1.26716H31.7314V1.78292C31.7314 3.89824 31.7105 11.1433 31.7732 12.6487C31.8673 14.8198 32.9023 16.3636 34.9932 17.1268C37.4117 18.0085 41.1335 16.97 41.9351 14.8337C41.9351 15.9628 41.9351 16.3322 41.9351 16.9247C42.8446 16.9142 45.967 16.8863 47.0299 16.8863Z" fill="white"/>
<path d="M31.0487 11.3941C29.6548 11.3941 28.1877 11.4603 26.8216 11.4638C26.7052 11.4671 26.5916 11.5011 26.4925 11.5622C26.3934 11.6234 26.3122 11.7097 26.257 11.8123C25.8591 12.3953 25.2678 12.8187 24.5878 13.0076C22.239 13.4955 20.406 12.3106 20.5488 9.93396H31.0487C31.0487 5.62318 29.8151 0.406342 23.382 0.406342C18.681 0.406342 15.7153 3.32666 15.7153 8.57138C15.7153 13.8161 18.9284 16.9037 23.3263 16.9037C28.7557 16.9037 31.0487 13.5129 31.0487 11.3941ZM21.6988 4.39651C22.1448 4.09664 22.6658 3.92759 23.2028 3.9085C23.7399 3.88941 24.2715 4.02103 24.7376 4.28848C25.7831 4.83909 26.1595 5.80439 26.2396 6.96834H20.3676C20.4547 5.91243 20.7858 4.99242 21.6988 4.39651Z" fill="white"/>
</svg>
